<svg xmlns="http://www.w3.org/2000/svg" viewBox="0 0 128 128"  fill="currentColor"><path   d="M108.534 84.9a1.749 1.749 0 0 0-2.153-.254A45 45 0 0 1 44.5 22.762a1.75 1.75 0 0 0-2.407-2.408 48.5 48.5 0 1 0 66.694 66.694 1.749 1.749 0 0 0-.253-2.148zm-41.076 21.788a45 45 0 0 1-29.339-79.125 48.508 48.508 0 0 0 63.46 63.46 44.66 44.66 0 0 1-34.121 15.665z"/><path d="M96.775 65.424a1.749 1.749 0 0 0-1.664-1.209H86.36l-2.7-8.323a1.75 1.75 0 0 0-3.328 0l-2.7 8.323h-8.761a1.75 1.75 0 0 0-1.028 3.166l7.079 5.143-2.7 8.324a1.749 1.749 0 0 0 2.689 1.952l7.08-5.144 7.08 5.144a1.75 1.75 0 0 0 2.693-1.956l-2.7-8.324 7.079-5.143a1.75 1.75 0 0 0 .632-1.953zm-10.8 5.016a1.748 1.748 0 0 0-.636 1.956l1.432 4.411-3.751-2.726a1.751 1.751 0 0 0-2.057 0l-3.752 2.726 1.433-4.407a1.751 1.751 0 0 0-.636-1.956l-3.751-2.725H78.9a1.751 1.751 0 0 0 1.664-1.21l1.427-4.409 1.434 4.41a1.749 1.749 0 0 0 1.664 1.209h4.637zM84.691 39.16l-2.45 7.54a1.75 1.75 0 0 0 2.693 1.957L91.349 44l6.416 4.661a1.75 1.75 0 0 0 2.692-1.957l-2.45-7.541 6.414-4.66a1.75 1.75 0 0 0-1.028-3.166h-7.929l-2.451-7.542a1.749 1.749 0 0 0-3.328 0l-2.451 7.541h-7.928a1.75 1.75 0 0 0-1.029 3.164zm3.815-4.326a1.749 1.749 0 0 0 1.664-1.209L91.349 30l1.179 3.628a1.751 1.751 0 0 0 1.664 1.209h3.815l-3.086 2.242a1.751 1.751 0 0 0-.636 1.957l1.179 3.628-3.087-2.243a1.751 1.751 0 0 0-2.057 0l-3.086 2.239 1.179-3.627a1.75 1.75 0 0 0-.636-1.957l-3.086-2.242zM53.708 52l-2.729 8.4a1.75 1.75 0 0 0 2.693 1.957l7.143-5.19 7.144 5.19a1.749 1.749 0 0 0 2.692-1.957L67.923 52l7.142-5.189a1.75 1.75 0 0 0-1.028-3.166h-8.829l-2.729-8.4a1.75 1.75 0 0 0-3.329 0l-2.728 8.4h-8.829a1.75 1.75 0 0 0-1.029 3.166zm3.986-4.855a1.75 1.75 0 0 0 1.664-1.21l1.457-4.484 1.457 4.485a1.751 1.751 0 0 0 1.665 1.209h4.714l-3.815 2.771a1.75 1.75 0 0 0-.635 1.957l1.457 4.483-3.815-2.771a1.75 1.75 0 0 0-2.057 0l-3.814 2.771 1.457-4.484a1.748 1.748 0 0 0-.636-1.956l-3.814-2.771z"/></svg>