<svg xmlns="http://www.w3.org/2000/svg" viewBox="0 0 64 64" style="enable-background:new 0 0 64 64" xml:space="preserve" fill="currentColor"  ><path  d="M62.999 32a.998.998 0 0 0-.309-.722c-3.022-2.894-6.243-4.551-9.56-5.006 2.552-1.953 4.488-4.843 5.752-8.656a1 1 0 0 0-.678-1.277c-3.63-1.027-6.928-1.118-9.852-.274 1.176-2.42 1.748-5.29 1.675-8.597a1 1 0 0 0-1.066-.976c-4.766.319-8.51 1.881-11.186 4.631-.392-3.413-2.079-6.707-5.052-9.814-.377-.395-1.069-.395-1.446 0-2.97 3.104-4.656 6.395-5.05 9.815-2.662-2.745-6.413-4.313-11.19-4.632a1 1 0 0 0-1.066.976c-.073 3.305.499 6.174 1.676 8.593-2.916-.84-6.215-.749-9.85.278a1.002 1.002 0 0 0-.677 1.277c1.259 3.801 3.188 6.686 5.74 8.645-3.319.447-6.524 2.12-9.55 5.017a.998.998 0 0 0 0 1.444c3.022 2.894 6.222 4.565 9.548 5.015-2.546 1.953-4.478 4.84-5.738 8.647a1 1 0 0 0 .677 1.277c1.994.564 3.887.846 5.673.846 1.474 0 2.867-.215 4.191-.6-1.186 2.425-1.764 5.304-1.69 8.625a1 1 0 0 0 1.066.976c4.767-.319 8.514-1.881 11.188-4.631.392 3.413 2.079 6.708 5.052 9.814a1 1 0 0 0 1.446 0c2.97-3.104 4.656-6.395 5.05-9.815 2.662 2.745 6.412 4.313 11.188 4.632a.997.997 0 0 0 1.066-.976c.074-3.32-.502-6.198-1.687-8.622 1.32.383 2.709.597 4.183.597 1.787 0 3.684-.281 5.681-.846a1.003 1.003 0 0 0 .678-1.277c-1.26-3.801-3.189-6.686-5.741-8.645 3.318-.448 6.523-2.12 9.55-5.017a.998.998 0 0 0 .308-.722zM32 49.853c-9.845 0-17.854-8.009-17.854-17.853S22.157 14.147 32 14.147 49.853 22.156 49.853 32 41.846 49.853 32 49.853zm24.623-31.857c-1.336 3.483-3.323 5.99-5.89 7.488a19.823 19.823 0 0 0-1.051-2.467l3.293-1.893a1 1 0 0 0-.997-1.734l-3.293 1.892a19.882 19.882 0 0 0-1.873-2.455c2.76-1.422 6.053-1.707 9.811-.831zm-8.597-9.412c-.085 3.535-1.014 6.446-2.757 8.69a19.893 19.893 0 0 0-2.235-1.767l2.824-3.261a1 1 0 0 0-1.511-1.31l-3.057 3.53a19.756 19.756 0 0 0-2.74-1.186c.098-.138.196-.284.293-.4 2.132-2.403 5.217-3.846 9.183-4.296zM32 3.48c2.54 2.913 3.83 5.957 3.863 9.05A19.862 19.862 0 0 0 33 12.198v-4.32a1 1 0 1 0-2 0v4.32c-.973.049-1.93.148-2.861.332.037-3.102 1.326-6.14 3.861-9.049zm-6.858 9.382c.105.124.206.274.308.417a19.77 19.77 0 0 0-3.13 1.403l-2.254-3.454a1.001 1.001 0 0 0-1.675 1.093l2.238 3.429c-.666.467-1.295.98-1.898 1.523-1.744-2.245-2.673-5.156-2.76-8.69 3.968.45 7.053 1.892 9.17 4.28zM7.378 17.996c3.77-.88 7.068-.591 9.81.83a19.932 19.932 0 0 0-1.783 2.306l-3.743-1.97a1 1 0 0 0-.931 1.771l3.664 1.927c-.439.84-.811 1.718-1.126 2.622-2.579-1.51-4.56-4.013-5.891-7.486zM12.53 28.13A19.794 19.794 0 0 0 12.197 31H7.88a1 1 0 1 0 0 2h4.318c.05.973.149 1.931.333 2.862-3.138-.035-6.14-1.327-9.048-3.862 2.914-2.541 5.958-3.836 9.05-3.87zM7.378 46.004c1.334-3.481 3.321-5.987 5.89-7.488.318.913.693 1.797 1.135 2.644l-3.907 2.168a1 1 0 0 0 .97 1.749l3.95-2.191c.532.808 1.13 1.566 1.772 2.286-2.76 1.423-6.05 1.708-9.81.832zm8.594 9.413c.086-3.537 1.015-6.449 2.76-8.691a19.933 19.933 0 0 0 2.074 1.656l-2.581 3.366a1 1 0 1 0 1.587 1.217l2.706-3.528c.932.51 1.919.927 2.933 1.283-.098.137-.195.283-.294.4-2.132 2.403-5.218 3.846-9.185 4.297zM32 60.519c-2.54-2.913-3.83-5.956-3.863-9.05.931.185 1.89.284 2.863.333v4.32a1 1 0 1 0 2 0v-4.32c.973-.049 1.93-.148 2.861-.332-.037 3.102-1.326 6.141-3.861 9.049zm6.86-9.381c-.105-.124-.207-.274-.31-.419.94-.33 1.851-.716 2.72-1.177l2.683 3.261a1 1 0 1 0 1.545-1.27l-2.488-3.025a19.97 19.97 0 0 0 2.259-1.782c1.743 2.242 2.672 5.153 2.758 8.69-3.967-.45-7.051-1.892-9.168-4.278zm17.763-5.134c-3.771.878-7.07.59-9.813-.83a19.891 19.891 0 0 0 1.822-2.367l3.321 1.929a.999.999 0 1 0 1.004-1.73l-3.321-1.929c.424-.821.788-1.677 1.095-2.56 2.578 1.51 4.56 4.014 5.892 7.487zM51.469 35.87c.185-.933.285-1.894.334-2.869h4.32a1 1 0 1 0 0-2h-4.32a19.825 19.825 0 0 0-.333-2.861c3.126.044 6.141 1.326 9.048 3.861-2.913 2.541-5.956 3.836-9.05 3.87z"/><path d="M32 21.306c-5.896 0-10.693 4.797-10.693 10.694S26.104 42.694 32 42.694 42.693 37.897 42.693 32 37.897 21.306 32 21.306zm0 19.388c-4.794 0-8.693-3.9-8.693-8.694 0-4.794 3.9-8.694 8.693-8.694 4.794 0 8.693 3.9 8.693 8.694 0 4.794-3.9 8.694-8.693 8.694z"/><path d="M32 30.979a1 1 0 0 0-1 1V32a.99.99 0 0 0 1 .99c.553 0 1-.459 1-1.011a1 1 0 0 0-1-1zM28.18 35.293a1 1 0 0 0-1 1v.021c0 .552.448.99 1 .99.553 0 1-.459 1-1.011a1 1 0 0 0-1-1zM35.82 35.314a1 1 0 0 0-1 1v.021a.99.99 0 0 0 1 .99c.552 0 1-.459 1-1.011a1 1 0 0 0-1-1zM35.82 26.665a1 1 0 0 0-1 1v.021a.99.99 0 0 0 1 .99c.552 0 1-.46 1-1.011a1 1 0 0 0-1-1zM28.18 26.686a1 1 0 0 0-1 1v.021a.99.99 0 0 0 1 .99c.553 0 1-.459 1-1.011a1 1 0 0 0-1-1zM22.065 23.13c.553 0 1-.46 1-1.013a1 1 0 1 0-2 0v.025a.99.99 0 0 0 1 .988zM41.935 21.096a1 1 0 0 0-1 1v.021a.99.99 0 0 0 1 .99c.552 0 1-.459 1-1.01a1 1 0 0 0-1-1zM41.935 40.883a1 1 0 0 0-1 1v.02c0 .553.447.99 1 .99.552 0 1-.458 1-1.01a1 1 0 0 0-1-1zM22.065 40.883a1 1 0 0 0-1 1v.02c0 .553.448.99 1 .99.553 0 1-.458 1-1.01a1 1 0 0 0-1-1zM45.794 30.979a1 1 0 0 0-1 1V32a.99.99 0 0 0 1 .99c.553 0 1-.459 1-1.011a1 1 0 0 0-1-1zM18.206 30.979a1 1 0 0 0-1 1V32a.99.99 0 0 0 1 .99c.553 0 1-.459 1-1.011a1 1 0 0 0-1-1zM32 45.4a1 1 0 0 0-1 1v.021a.99.99 0 0 0 1 .99c.553 0 1-.459 1-1.011s-.447-1-1-1zM32 18.547c.553 0 1-.459 1-1.01a1 1 0 1 0-2 0v.021a.99.99 0 0 0 1 .989z"/></svg>